<svg width="256" height="256" viewBox="0 0 256 256"
     fill="none" xmlns="http://www.w3.org/2000/svg">
    <path fill-rule="evenodd" clip-rule="evenodd"
          d="M86.2111 24.4223C87.5663 23.7447 89.1879 23.891 90.4 24.8L170.4 84.8C171.328 85.4958 171.908 86.5598 171.99 87.7165C172.072 88.8731 171.648 90.0085 170.828 90.8285L133.657 128L170.828 165.172C171.648 165.992 172.072 167.127 171.99 168.284C171.908 169.44 171.328 170.504 170.4 171.2L90.4 231.2C89.1879 232.109 87.5663 232.255 86.2111 231.578C84.856 230.9 84 229.515 84 228V168C84 166.939 84.4214 165.922 85.1716 165.172L122.343 128L85.1716 90.8285C84.4214 90.0783 84 89.0609 84 88V28C84 26.4849 84.856 25.0999 86.2111 24.4223ZM128 122.343L161.91 88.4328L92 36V86.3432L128 122.343ZM128 133.657L92 169.657V220L161.91 167.567L128 133.657Z"
          fill="#864CA0"/>
</svg>
